<svg xmlns="http://www.w3.org/2000/svg" width="24" height="24" viewBox="0 0 24 24" fill="none" stroke="currentColor" stroke-width="2.2" stroke-linecap="round" stroke-linejoin="round" class="lucide lucide-calendar-check2 lucide-calendar-check-2 size-5" aria-hidden="true">
	<path d="M 19 3 L 5 3"></path>
	<path d="M 21 13 L 21 5"></path>
	<path d="M 21 5 A2 2 0 0 0 19 3"></path>
	<path d="M 3 19 A2 2 0 0 0 5 21"></path>
	<path d="M 3 5 L 3 19"></path>
	<path d="M 5 3 A2 2 0 0 0 3 5"></path>
	<path d="m16 19 2 2 4-4"></path>
	<path d="M16 2v3"></path>
	<path d="M3 9h18"></path>
	<path d="M5 21 L12.5 21"></path>
	<path d="M8 2v3"></path>
</svg>